# xmcd
#
# Track frame offsets:
# 150
# 18975
# 41907
# 66014
# 75328
# 91166
# 108542
# 134042
# 144670
# 164830
# 185548
# 196954
#
# Disc length: 2859 seconds
#
#
# Revision: 0
# Processed by: cddbd v1.5PL3 Copyright (c) Steve Scherf et al.
# Submitted via: FreeRIP 2.53 
#
DISCID=aa0b290c
DTITLE=Nickelcreek - Nickelcreek
DYEAR=1900
DGENRE=
TTITLE0=Ode To A Butterfly
TTITLE1=Lighthouse's Tale
TTITLE2=Out Of The Woods
TTITLE3=House Of Tom Bombadil
TTITLE4=Reasons Why
TTITLE5=When You Come Back Down
TTITLE6=Sweet Afton
TTITLE7=Cuckoo's Nest
TTITLE8=Hand Song
TTITLE9=Robin And Marion
TTITLE10=Fox
TTITLE11=Pastures New
EXTD=
EXTT0=
EXTT1=
EXTT2=
EXTT3=
EXTT4=
EXTT5=
EXTT6=
EXTT7=
EXTT8=
EXTT9=
EXTT10=
EXTT11=
PLAYORDER=
